PathFileType	4	(X/Y/Z) flx_0kg_1.trc																										
DataRate	CameraRate	NumFrames	NumMarkers	Units	OrigDataRate	OrigDataStartFrame	OrigNumFrames																					
100	100	19	9	mm	100	298	794																					
Frame#	Time	gu			centelbow			EpL			centpxt8			centijc7			ij			ts			aa			ai		
		X1	Y1	Z1	X2	Y2	Z2	X3	Y3	Z3	X4	Y4	Z4	X5	Y5	Z5	X6	Y6	Z6	X7	Y7	Z7	X8	Y8	Z8	X9	Y9	Z9  
297	2.97	-99.451	60.139	99.037	0.255	270.895	180.431	-26.52	283.733	167.871	-46.816	-153.158	-8.669	-46.816	31.938	-8.669	0	0	0	-146.577	-22.191	56.334	-132.271	84.237	108.23	-115.875	-68.7	155.228
298	2.98	-99.912	59.899	98.888	-1.276	271.295	179.925	-28.054	283.992	167.229	-46.816	-153.158	-8.669	-46.816	31.938	-8.669	0	0	0	-146.578	-22.611	56.462	-132.89	84.063	108.019	-116.091	-68.634	155.649
299	2.99	-100.185	59.729	99.083	-2.614	271.731	179.825	-29.387	284.291	166.985	-46.816	-153.158	-8.669	-46.816	31.938	-8.669	0	0	0	-146.405	-23.302	56.872	-133.287	83.581	108.142	-116.227	-68.906	156.347
300	3	-100.354	59.824	99.294	-3.892	272.443	179.748	-30.665	284.862	166.771	-46.816	-153.158	-8.669	-46.816	31.938	-8.669	0	0	0	-146.137	-23.948	57.353	-133.578	83.123	108.371	-116.264	-69.171	157.094
301	3.01	-100.567	60.14	99.165	-5.179	273.376	179.264	-31.963	285.651	166.174	-46.816	-153.158	-8.669	-46.816	31.938	-8.669	0	0	0	-145.986	-24.28	57.61	-133.972	82.973	108.377	-116.329	-69.128	157.584
302	3.02	-100.825	60.426	98.839	-6.363	274.207	178.581	-33.16	286.353	165.398	-46.816	-153.158	-8.669	-46.816	31.938	-8.669	0	0	0	-145.986	-24.315	57.594	-134.489	83.119	108.098	-116.468	-68.783	157.779
303	3.03	-101.073	60.49	98.611	-7.361	274.691	178.113	-34.161	286.737	164.844	-46.816	-153.158	-8.669	-46.816	31.938	-8.669	0	0	0	-145.888	-24.113	57.366	-134.907	83.506	107.59	-116.465	-68.187	157.751
304	3.04	-101.33	60.459	98.511	-8.268	274.994	177.874	-35.063	286.96	164.522	-46.816	-153.158	-8.669	-46.816	31.938	-8.669	0	0	0	-145.523	-23.735	57.093	-135.086	84.064	107.045	-116.184	-67.417	157.675
305	3.05	-101.573	60.532	98.481	-9.171	275.405	177.7	-35.959	287.289	164.262	-46.816	-153.158	-8.669	-46.816	31.938	-8.669	0	0	0	-145.063	-23.5	57.156	-135.164	84.457	106.877	-115.881	-66.832	157.935
306	3.06	-101.744	60.672	98.433	-10.044	275.917	177.458	-36.827	287.712	163.931	-46.816	-153.158	-8.669	-46.816	31.938	-8.669	0	0	0	-144.746	-23.699	57.7	-135.31	84.379	107.246	-115.824	-66.76	158.67
307	3.07	-101.844	60.767	98.257	-10.846	276.385	177.076	-37.624	288.09	163.461	-46.816	-153.158	-8.669	-46.816	31.938	-8.669	0	0	0	-144.585	-24.178	58.339	-135.508	83.991	107.754	-115.929	-67.036	159.47
308	3.08	-101.885	60.815	98.082	-11.557	276.772	176.743	-38.324	288.394	163.036	-46.816	-153.158	-8.669	-46.816	31.938	-8.669	0	0	0	-144.476	-24.532	58.593	-135.682	83.71	107.899	-115.977	-67.224	159.839
309	3.09	-101.916	60.791	98.201	-12.246	277.047	176.796	-38.991	288.596	162.985	-46.816	-153.158	-8.669	-46.816	31.938	-8.669	0	0	0	-144.387	-24.517	58.365	-135.849	83.797	107.56	-115.925	-67.043	159.691
310	3.1	-102.016	60.633	98.627	-13.016	277.157	177.246	-39.732	288.639	163.322	-46.816	-153.158	-8.669	-46.816	31.938	-8.669	0	0	0	-144.356	-24.204	57.954	-136.076	84.189	107.016	-115.881	-66.542	159.356
311	3.11	-102.126	60.421	99.049	-13.793	277.201	177.714	-40.478	288.618	163.68	-46.816	-153.158	-8.669	-46.816	31.938	-8.669	0	0	0	-144.367	-23.888	57.761	-136.336	84.594	106.669	-115.901	-66.021	159.251
312	3.12	-102.126	60.381	99.215	-14.437	277.424	177.874	-41.106	288.773	163.752	-46.816	-153.158	-8.669	-46.816	31.938	-8.669	0	0	0	-144.349	-23.776	57.925	-136.528	84.79	106.68	-115.926	-65.716	159.506
313	3.13	-102.07	60.633	99.124	-14.999	277.947	177.719	-41.67	289.223	163.544	-46.816	-153.158	-8.669	-46.816	31.938	-8.669	0	0	0	-144.325	-23.813	58.232	-136.66	84.825	106.852	-115.927	-65.59	159.887
314	3.14	-102.079	61.007	98.903	-15.581	278.579	177.417	-42.275	289.781	163.225	-46.816	-153.158	-8.669	-46.816	31.938	-8.669	0	0	0	-144.384	-23.871	58.448	-136.821	84.824	106.956	-115.937	-65.516	160.144
315	3.15	-102.184	61.2	98.682	-16.183	278.985	177.153	-42.909	290.121	162.971	-46.816	-153.158	-8.669	-46.816	31.938	-8.669	0	0	0	-144.473	-23.979	58.6	-136.973	84.76	107.019	-115.9	-65.519	160.304
